<?xml version="1.0" encoding="iso-8859-1"?>
<!-- Generator: Adobe Illustrator 19.0.0, SVG Export Plug-In . SVG Version: 6.00 Build 0)  -->
<svg version="1.1" id="Layer_1" xmlns="http://www.w3.org/2000/svg" xmlns:xlink="http://www.w3.org/1999/xlink" x="0px" y="0px"
	 viewBox="0 0 512 512" style="enable-background:new 0 0 512 512;" xml:space="preserve">
<path style="fill:#FF6465;" d="M312.479,402.276L312.479,402.276l-55.966,53.397l-55.975-53.754l-1.026,0.356
	c-42.122,14.765-72.328,54.872-72.328,102.036l0,0h257.636l0,0C384.817,457.142,354.605,417.039,312.479,402.276z"/>
<path style="fill:#F0BB9A;" d="M286.923,396.705v-56.286h-61.847v56.287c-8.503,0.797-16.724,2.561-24.539,5.212
	c1.197,29.889,25.793,53.754,55.975,53.754c30.062,0,54.589-23.675,55.966-53.397C304.36,399.431,295.795,397.538,286.923,396.705z"
	/>
<path style="fill:#D9A382;" d="M225.076,389.556c9.935,2.336,20.286,3.576,30.923,3.576s20.99-1.241,30.924-3.576V340.42h-61.847
	V389.556z"/>
<path style="fill:#5A4146;" d="M109.429,225.21h293.14c27.068-0.626,32.894-38.95,6.731-47.341l0,0l0,0
	c26.414-8.472,20.236-47.477-7.503-47.373l0,0l0,0c22.502-16.22,4.574-51.406-21.775-42.735l0,0l0,0
	c16.389-22.38-11.535-50.304-33.915-33.915l0,0l0,0c8.671-26.349-26.515-44.277-42.735-21.775l0,0l0,0
	c0.105-27.738-38.9-33.916-47.373-7.503l0,0l0,0c-8.472-26.414-47.477-20.236-47.373,7.503l0,0l0,0
	c-16.22-22.502-51.406-4.574-42.735,21.775l0,0l0,0c-22.38-16.389-50.304,11.535-33.915,33.915l0,0l0,0
	c-26.349-8.671-44.277,26.515-21.775,42.735l0,0l0,0c-27.738-0.105-33.916,38.9-7.503,47.373l0,0l0,0
	C76.536,186.26,82.361,224.583,109.429,225.21"/>
<g>
	<path style="fill:#D9A382;" d="M159.343,206.922c-64.508-28.574-65.112,58.225-11.559,67.645L159.343,206.922z"/>
	<path style="fill:#D9A382;" d="M352.655,206.922c64.508-28.574,65.112,58.225,11.559,67.645L352.655,206.922z"/>
</g>
<path style="fill:#F0BB9A;" d="M255.998,367.498L255.998,367.498c60.451,0,109.455-49.004,109.455-109.455v-81.478
	c0-24.639-8.141-47.376-21.881-65.668c-18.612-24.781-52.452-32.909-80.048-18.804c-4.962,2.537-7.526,4.645-7.526,4.645
	s-2.564-2.109-7.526-4.645c-27.596-14.106-61.436-5.978-80.048,18.804c-13.739,18.292-21.88,41.029-21.88,65.668v81.478
	C146.544,318.494,195.549,367.498,255.998,367.498h0.001H255.998z"/>
<path style="fill:#5B5D6E;" d="M335.672,116.557H176.326c-17.571,0-31.815,14.244-31.815,31.815v94.378
	c0,17.571,14.244,31.815,31.815,31.815h159.347c17.571,0,31.815-14.244,31.815-31.815v-94.378
	C367.487,130.801,353.243,116.557,335.672,116.557z"/>
<path style="fill:#C7CFE2;" d="M320.78,147.318H191.218c-8.808,0-15.947,7.139-15.947,15.947v64.594
	c0,8.808,7.139,15.947,15.947,15.947H320.78c8.808,0,15.947-7.139,15.947-15.947v-64.595
	C336.727,154.457,329.587,147.318,320.78,147.318z"/>
<path style="fill:#2A2A33;" d="M256,295.783c-12.07,0-21.855,10.568-21.855,23.604c0,1.627,0.153,3.216,0.443,4.75L256,329.659
	l21.412-5.521c0.29-1.534,0.443-3.123,0.443-4.75C277.855,306.351,268.069,295.783,256,295.783z"/>
<path style="fill:#FF6465;" d="M256,342.991c10.563,0,19.376-8.095,21.412-18.855c-6.48-1.601-13.742-2.498-21.412-2.498
	c-7.671,0-14.932,0.897-21.412,2.498C236.623,334.897,245.436,342.991,256,342.991z"/>
<path d="M320.781,139.628H191.219c-13.033,0-23.637,10.603-23.637,23.637v64.594c0,13.033,10.604,23.637,23.637,23.637h7.701
	c4.248,0,7.69-3.443,7.69-7.69s-3.442-7.69-7.69-7.69h-7.701c-4.553,0-8.257-3.705-8.257-8.257v-64.594
	c0-4.553,3.704-8.257,8.257-8.257h129.562c4.552,0,8.257,3.704,8.257,8.256v64.595c0,4.553-3.704,8.257-8.257,8.257h-91.175
	c-4.248,0-7.69,3.443-7.69,7.69s3.442,7.69,7.69,7.69h91.175c13.033,0,23.637-10.604,23.637-23.637v-64.595
	C344.417,150.232,333.814,139.628,320.781,139.628z"/>
<path d="M78.485,205.502c1.895,13.103,10.959,23.092,23.059,26.303c0.945,20.544,14.912,42.341,39.563,49.128
	c8.131,40.884,37.606,74.167,76.28,87.709v21.274c-6.598,1.02-13.07,2.601-19.339,4.729c-0.01,0.003-0.022,0.005-0.032,0.009
	l-1.05,0.364c-15.651,5.487-29.702,14.125-41.761,25.678c-3.068,2.938-3.172,7.806-0.235,10.873
	c2.937,3.067,7.805,3.171,10.873,0.235c8.387-8.033,17.878-14.44,28.286-19.112c2.292,11.122,7.734,21.729,15.398,30.094
	c11.979,13.076,29.265,20.58,46.987,20.58c21.348,0,42.003-11.182,53.574-29.146c0.687-1.066,10.672-20.289,8.831-21.05
	c18.606,7.693,34.654,23.556,44.649,40.787c3.764,6.489,6.801,13.399,9.031,20.561c0.561,1.799,4.921,22.105,4.234,22.105
	c-0.149,0-241.665,0-241.665,0c1.138-14.823,5.555-29.259,12.944-42.149c2.112-3.685,0.837-8.384-2.847-10.495
	c-3.683-2.112-8.384-0.837-10.495,2.847c-9.994,17.436-15.276,37.314-15.276,57.487c0,4.247,3.442,7.69,7.69,7.69h257.636
	c4.248,0,7.69-3.443,7.69-7.69c0-49.129-31.139-93.05-77.488-109.292c-6.601-2.313-13.439-4.021-20.406-5.102v-21.275
	c38.673-13.543,68.146-46.824,76.278-87.708c24.65-6.786,38.614-28.582,39.56-49.127c12.102-3.209,21.168-13.199,23.064-26.304
	c1.365-9.435-1.269-20.216-9.27-27.717c7.302-6.958,10.91-17.143,9.217-27.959c-1.702-10.88-8.308-19.515-17.459-23.888
	c4.053-7.34,4.917-16.035,2.123-24.686c-3.926-12.161-14.113-20.721-26.035-22.28c1.233-6.573,0.302-13.388-2.869-19.639
	c-5.577-10.997-16.869-18.101-28.767-18.101c-1.86,0-3.713,0.174-5.541,0.518c-0.64-4.977-2.512-9.712-5.58-13.951
	c-6.093-8.42-16.334-13.649-26.728-13.649c-5.249,0-10.194,1.265-14.61,3.677c-1.464-3.076-3.44-5.881-5.906-8.355
	C296.097,3.452,287.617,0,278.83,0c-9.088,0-17.092,3.486-22.83,9.588C250.262,3.486,242.259,0,233.171,0
	c-8.789,0-17.269,3.451-23.264,9.47c-2.464,2.474-4.441,5.28-5.905,8.357c-4.416-2.412-9.361-3.677-14.61-3.677
	c-10.394,0-20.635,5.229-26.726,13.648c-3.068,4.239-4.939,8.974-5.58,13.951c-1.828-0.343-3.68-0.518-5.54-0.518
	c-11.899,0-23.191,7.106-28.768,18.101c-3.171,6.253-4.103,13.067-2.869,19.64c-11.924,1.56-22.109,10.12-26.036,22.28
	c-2.793,8.651-1.93,17.346,2.125,24.686c-9.153,4.373-15.758,13.008-17.46,23.887c-1.692,10.816,1.915,21.003,9.218,27.961
	C79.755,185.287,77.12,196.067,78.485,205.502z M116.98,226.867c0.457-5.229,2.382-10.647,6.584-14.025
	c3.183-2.557,7.261-3.751,11.297-3.934c0.655-0.03,1.304-0.021,1.959-0.001v33.844c0,4.203,0.685,8.412,2.006,12.402
	c0.01,0.03,0.018,0.061,0.029,0.09c0,2.878,0.002,5.757,0.145,8.633C122.338,256.22,115.94,238.796,116.98,226.867z M304.169,407.71
	c-0.042,0.25-0.082,0.501-0.127,0.75c-2.883,15.728-13.741,29.332-28.442,35.621c-5.937,2.54-12.56,3.902-19.088,3.902
	c-9.022,0-18.097-2.543-25.731-7.365c-9.433-5.958-16.8-15.281-20.23-25.912c-0.189-0.585-2.059-7.188-1.737-7.276
	c5.52-1.498,11.209-2.527,16.98-3.068c3.952-0.37,6.972-3.687,6.972-7.656v-23.83c2.081,0.418,4.177,0.814,6.284,1.082
	c5.536,0.806,11.194,1.23,16.949,1.23c5.766,0,11.436-0.427,16.982-1.236c2.092-0.307,4.181-0.66,6.254-1.078v23.829
	c0,3.969,3.02,7.285,6.971,7.656C292.308,404.934,298.328,406.057,304.169,407.71z M359.798,202.079v40.672
	c0,5.303-1.812,10.574-5.063,14.761c-0.058,0.075-0.117,0.15-0.176,0.225c-4.502,5.679-11.634,9.14-18.886,9.14h-18.97
	c-4.248,0-7.69,3.443-7.69,7.69c0,0.266,0.013,0.528,0.04,0.786c0.362,3.575,3.294,6.502,6.864,6.864
	c0.258,0.026,0.521,0.04,0.786,0.04h18.97c7.155,0,14.281-1.982,20.401-5.688c-7.075,38.303-35.672,69.151-72.733,79.503
	c-0.251,0.07-0.502,0.138-0.754,0.207c-27.895,7.55-58.629,2.597-82.703-13.388c-22.017-14.62-37.883-37.696-43.41-63.563
	c-0.196-0.917-0.379-1.836-0.55-2.758c4.473,2.709,9.524,4.547,14.92,5.299c0.053,0.007,0.107,0.013,0.16,0.021
	c1.757,0.247,3.548,0.368,5.322,0.368h109.616c0.266,0,0.528-0.013,0.786-0.04c3.499-0.353,6.499-3.268,6.864-6.864
	c0.027-0.258,0.04-0.521,0.04-0.786c0-4.247-3.442-7.69-7.69-7.69H176.327c-12.944,0-24.125-11.169-24.125-24.125V202.08v-53.706
	c0-10.775,7.103-19.921,16.87-23.009c0.045-0.014,0.09-0.029,0.134-0.043c2.3-0.716,4.712-1.074,7.12-1.074h159.346
	c2.4,0,4.822,0.356,7.116,1.071c0.05,0.015,0.099,0.033,0.15,0.048c8.256,2.614,14.606,9.554,16.37,18.15
	c0.322,1.569,0.491,3.193,0.491,4.856V202.079z M180.446,108.867c10.478-10.128,24.651-15.984,39.356-15.984
	c8.838,0,17.308,2.038,25.173,6.059c4.01,2.051,6.141,3.738,6.141,3.738c2.808,2.31,6.893,2.304,9.733,0.031
	c0.022-0.017,2.151-1.709,6.179-3.768c7.865-4.02,16.335-6.059,25.173-6.059c14.703,0,28.876,5.856,39.354,15.984H180.446V108.867z
	 M372.999,263.877c0.098-2,0.143-4.002,0.145-6.005c0.001-0.754-0.236-1.913,0-2.625c0.011-0.033,0.02-0.066,0.031-0.099
	c1.313-3.988,2.004-8.198,2.004-12.397v-33.844c0.289-0.008,0.584-0.024,0.868-0.024c0.372,0,0.733,0.011,1.091,0.025
	c3.948,0.18,10.407,1.452,14.423,7.317c0.039,0.059,0.081,0.117,0.12,0.175c0.02,0.029,0.038,0.062,0.057,0.09
	c2.018,3.157,2.852,6.722,3.181,9.5c0.034,0.291,0.071,0.577,0.097,0.878C396.056,238.797,389.659,256.22,372.999,263.877z
	 M93.731,152.202c1.012-6.467,5.904-14.017,16.47-14.016c3.33,0,6.284-2.144,7.314-5.313c1.034-3.18-0.106-6.661-2.817-8.615
	c-9.102-6.561-7.039-15.651-6.19-18.281c1.909-5.914,7.391-11.881,15.334-11.881c1.85,0,3.778,0.325,5.732,0.968
	c3.175,1.045,6.661-0.082,8.625-2.786c1.964-2.704,1.956-6.366-0.018-9.063c-5.28-7.211-3.324-13.701-1.688-16.928
	c2.935-5.789,8.984-9.677,15.051-9.677c3.391,0,6.688,1.157,9.805,3.439c2.695,1.975,6.358,1.982,9.063,0.017
	c2.705-1.965,3.83-5.45,2.785-8.625c-2.237-6.797-0.187-11.706,1.928-14.627c3.252-4.493,8.719-7.284,14.268-7.284
	c3.614,0,8.804,1.22,12.997,7.037c1.954,2.712,5.439,3.85,8.614,2.818c3.18-1.033,5.326-4,5.314-7.342
	c-0.018-4.769,1.491-8.711,4.486-11.717c3.13-3.143,7.638-4.945,12.368-4.945c2.769,0,12.072,0.833,15.506,11.535
	c1.02,3.183,3.98,5.341,7.323,5.341c3.343,0,6.302-2.158,7.323-5.341c3.433-10.702,12.737-11.535,15.507-11.535
	c4.728,0,9.236,1.803,12.368,4.945c2.995,3.006,4.504,6.948,4.486,11.716c-0.012,3.343,2.135,6.31,5.314,7.342
	c3.178,1.033,6.661-0.106,8.614-2.818c4.194-5.817,9.382-7.037,12.997-7.037c5.548,0,11.015,2.792,14.268,7.285
	c2.114,2.922,4.165,7.831,1.929,14.626c-1.045,3.175,0.08,6.661,2.785,8.625c2.704,1.965,6.367,1.958,9.063-0.017
	c3.116-2.281,6.415-3.439,9.805-3.439c6.066,0,12.113,3.889,15.05,9.678c1.636,3.227,3.594,9.717-1.687,16.928
	c-1.975,2.697-1.982,6.36-0.017,9.064c1.965,2.704,5.449,3.83,8.625,2.784c1.952-0.643,3.881-0.968,5.731-0.968
	c7.941,0,13.423,5.966,15.332,11.881c0.849,2.63,2.912,11.721-6.189,18.281c-2.712,1.954-3.809,5.435-2.776,8.615
	c1.029,3.169,4.023,5.313,7.383,5.313c10.454,0,15.346,7.552,16.357,14.018c1.011,6.463-1.345,15.145-11.314,18.342
	c-3.183,1.021-5.341,3.98-5.341,7.323c0,3.343,2.158,6.302,5.341,7.323c9.847,3.159,12.264,11.729,11.341,18.11
	c-0.718,4.966-3.711,10.627-9.788,13.038c-3.987-12.358-13.656-20.562-26.67-22.425c-0.027-0.003-0.053-0.008-0.08-0.012
	c-2.175-0.326-4.38-0.433-6.579-0.391v-45.137c0-14.778-8.161-27.678-20.208-34.453c-1.701-2.689-3.458-5.258-5.248-7.641
	c-13.533-18.018-35.038-28.776-57.524-28.776c-11.136,0-22.262,2.678-32.173,7.744c-1.536,0.784-2.88,1.54-4.027,2.228
	c-1.147-0.688-2.491-1.444-4.027-2.228c-9.912-5.066-21.038-7.744-32.173-7.744c-22.487,0-43.99,10.758-57.525,28.776
	c-1.791,2.385-3.55,4.953-5.25,7.643c-12.046,6.774-20.205,19.674-20.205,34.451v45.137c-0.117-0.002-0.229,0.006-0.345,0.005
	c-10.093-0.087-20.344,3.639-26.926,11.604c-1.35,1.633-2.532,3.403-3.536,5.269c-0.261,0.486-2.787,5.844-2.523,5.948
	c-6.073-2.414-9.066-8.072-9.783-13.036c-0.923-6.38,1.494-14.95,11.341-18.11c3.183-1.021,5.341-3.98,5.341-7.323
	c0-3.343-2.158-6.302-5.341-7.323C95.077,167.348,92.721,158.666,93.731,152.202z"/>
<path d="M256,288.093c-16.292,0-29.544,14.039-29.544,31.294c0,2.079,0.194,4.159,0.577,6.181c0,0.002,0.001,0.004,0.002,0.006
	c2.755,14.549,14.936,25.107,28.966,25.107c14.03,0,26.211-10.559,28.966-25.107c0-0.002,0.001-0.004,0.002-0.006
	c0.383-2.025,0.577-4.104,0.577-6.181C285.545,302.132,272.291,288.093,256,288.093z M256,335.302
	c-4.127,0-7.938-2.042-10.565-5.337c0.079-0.009,0.157-0.022,0.236-0.031c6.842-0.825,13.815-0.814,20.66,0
	c0.079,0.009,0.157,0.022,0.236,0.031C263.938,333.26,260.127,335.302,256,335.302z M268.873,314.758
	c-4.267-0.54-8.572-0.809-12.873-0.809c-4.533,0-9.083,0.281-13.576,0.891c1.745-6.566,7.171-11.367,13.576-11.367
	c6.405,0,11.83,4.801,13.577,11.367C269.344,314.809,269.107,314.787,268.873,314.758z"/>
<g>
</g>
<g>
</g>
<g>
</g>
<g>
</g>
<g>
</g>
<g>
</g>
<g>
</g>
<g>
</g>
<g>
</g>
<g>
</g>
<g>
</g>
<g>
</g>
<g>
</g>
<g>
</g>
<g>
</g>
</svg>
